# Blender v2.91.2 OBJ File: 'rubikconnected.blend'
# www.blender.org
mtllib cornerWGR.mtl
o BasicCorner_Plane
v -0.072823 0.090000 0.086395
v -0.089995 0.090000 -0.069453
v -0.089907 0.090000 0.066486
v -0.062076 0.090000 0.089815
v -0.071996 0.089875 -0.069453
v -0.071996 0.089875 0.072000
v 0.069593 0.089731 0.089849
v 0.069482 0.089839 0.072014
v -0.076403 0.090000 0.084001
v -0.069358 0.090000 0.088266
v -0.079443 0.090000 0.081601
v -0.082749 0.090000 0.078835
v -0.085096 0.090000 0.075231
v 0.089995 -0.086395 0.072827
v 0.089995 0.072000 0.090000
v 0.089995 -0.066486 0.089912
v 0.089995 -0.089815 0.062079
v 0.089995 0.072000 0.072000
v 0.089995 -0.072000 0.072000
v 0.089995 -0.090000 -0.072000
v 0.089995 -0.072000 -0.072000
v 0.089995 -0.084001 0.076407
v 0.089995 -0.088266 0.069362
v 0.089995 -0.081601 0.079448
v 0.089995 -0.078835 0.082754
v 0.089995 -0.075231 0.085100
v -0.089995 0.072000 -0.090000
v -0.089907 -0.066486 -0.090000
v -0.062076 -0.089815 -0.090000
v -0.071996 0.072000 -0.090000
v -0.071996 -0.072000 -0.090000
v 0.069452 -0.090000 -0.090000
v 0.069486 -0.072271 -0.089934
v 0.087364 0.078656 0.000000
v 0.082628 0.084355 0.000000
v 0.076719 0.088068 0.000000
v 0.069471 0.089867 0.000000
v 0.089995 0.072000 0.000000
v 0.071996 0.072000 0.000000
v 0.087364 0.000000 -0.078656
v 0.082628 0.000000 -0.084355
v 0.076719 0.000000 -0.088068
v 0.069471 0.000000 -0.089867
v 0.089995 0.000000 -0.072000
v 0.071996 0.000000 -0.072000
v -0.089995 0.078656 -0.087369
v -0.089995 0.084355 -0.082632
v -0.089995 0.088068 -0.076723
v -0.089995 0.089867 -0.069475
v -0.089995 0.072000 -0.090000
v -0.089995 0.072000 -0.072000
v 0.087364 0.078656 0.090000
v 0.082628 0.084355 0.090000
v 0.076719 0.088068 0.090000
v 0.069471 0.089867 0.090000
v 0.089995 0.072000 0.090000
v 0.071996 0.072000 0.090000
v 0.087364 -0.090000 -0.078656
v 0.082628 -0.090000 -0.084355
v 0.076719 -0.090000 -0.088068
v 0.069471 -0.090000 -0.089867
v 0.089995 -0.090000 -0.072000
v 0.071996 -0.090000 -0.072000
v 0.067874 0.084355 -0.082632
v 0.067874 0.078656 -0.087369
v 0.067874 0.089867 -0.069475
v 0.067874 0.088068 -0.076723
v 0.067874 0.072000 -0.090000
v 0.067874 0.072000 -0.072000
v 0.071996 0.072000 -0.068743
v 0.089995 0.072000 -0.068743
v 0.082628 0.084355 -0.068743
v 0.076719 0.088068 -0.068743
v 0.087364 0.078656 -0.068743
v 0.069471 0.089867 -0.068743
v 0.069471 0.071999 -0.089867
v 0.076719 0.071999 -0.088068
v 0.087364 0.071999 -0.078656
v 0.090005 0.071940 -0.072048
v 0.082884 0.072101 -0.083922
v 0.071996 0.071999 -0.072000
v 0.067874 0.088967 -0.073099
v 0.082540 0.084207 -0.072240
v 0.076761 0.087907 -0.072067
v 0.087302 0.078570 -0.072195
v 0.068353 0.089913 -0.069107
v 0.067874 0.084355 -0.082632
v 0.067874 0.078656 -0.087369
v 0.067874 0.088068 -0.076723
v 0.067874 0.072000 -0.090000
v 0.067874 0.088967 -0.073099
v 0.067874 0.084355 -0.082632
v 0.067874 0.078656 -0.087369
v 0.067874 0.088068 -0.076723
v 0.067874 0.072000 -0.090000
v 0.067874 0.084355 -0.082632
v 0.067874 0.078656 -0.087369
v 0.067874 0.088068 -0.076723
v 0.067874 0.072000 -0.090000
v 0.074493 0.087411 -0.075012
v 0.079670 0.082487 -0.080232
v 0.081321 0.078092 -0.081880
v 0.074469 0.078385 -0.084841
v 0.073650 0.083482 -0.081432
v 0.071303 0.087684 -0.075868
v 0.068249 0.089884 -0.069268
v 0.072661 0.088881 -0.070610
v 0.076719 0.088068 0.071987
v 0.069471 0.089867 0.071987
v 0.089995 0.072000 0.071987
v 0.087364 0.078656 0.071987
v 0.071996 0.072000 0.071987
v 0.082628 0.084355 0.071987
v 0.082628 -0.072197 -0.084355
v 0.087364 -0.072197 -0.078656
v 0.076719 -0.072197 -0.088068
v 0.071996 -0.072197 -0.072000
v -0.072016 0.084355 -0.082632
v 0.089995 -0.072197 -0.072000
v -0.072016 0.072000 -0.072000
v -0.072016 0.078656 -0.087369
v -0.072016 0.088068 -0.076723
v -0.072016 0.072000 -0.090000
v -0.072823 0.090000 0.086395
v -0.089907 0.090000 0.066486
v -0.062076 0.090000 0.089815
v -0.076403 0.090000 0.084001
v -0.069358 0.090000 0.088266
v -0.079443 0.090000 0.081601
v -0.082749 0.090000 0.078835
v -0.085096 0.090000 0.075231
v -0.072823 -0.090000 0.086395
v -0.089907 -0.090000 0.066486
v -0.062076 -0.090000 0.089815
v -0.076403 -0.090000 0.084001
v -0.069358 -0.090000 0.088266
v -0.079443 -0.090000 0.081601
v -0.082749 -0.090000 0.078835
v -0.085096 -0.090000 0.075231
v -0.089907 -0.078243 -0.011757
v -0.062076 -0.089908 -0.000092
vt 0.000000 0.000000
vt 0.000000 0.000000
vt 0.000000 0.000000
vt 0.000000 0.000000
vt 0.000000 0.000000
vt 0.050000 0.000000
vt 0.100000 0.000000
vt 0.100000 0.154240
vt 0.000000 0.154240
vt 0.000000 0.144600
vt 0.000000 0.134960
vt 0.000000 0.115680
vt 0.000000 0.077120
vt 0.100000 0.900000
vt 0.000000 0.900000
vt 0.909364 0.000000
vt 0.909364 0.154240
vt 0.000000 0.000000
vt 0.000000 0.000000
vt 0.000000 0.000000
vt 0.000000 0.000000
vt 0.000000 0.000000
vt 0.050000 0.000000
vt 0.100000 0.000000
vt 0.100000 0.154240
vt 0.000000 0.154240
vt 0.000000 0.144600
vt 0.000000 0.134960
vt 0.000000 0.115680
vt 0.000000 0.077120
vt 0.100000 0.900000
vt 0.000000 0.900000
vt 0.909364 0.000000
vt 0.909364 0.154240
vt 1.000000 0.900000
vt 1.000000 0.900000
vt 0.909364 0.900000
vt 0.909364 0.900000
vt 0.000000 0.154240
vt 0.000000 0.900000
vt 0.100000 0.900000
vt 0.100000 0.154240
vt 0.100000 0.000000
vt 0.909364 0.154240
vt 0.909364 0.000000
vt 0.000000 0.000000
vt 0.000000 0.000000
vt 0.000000 0.000000
vt 0.000000 0.000000
vt 0.000000 0.000000
vt 0.000000 0.000000
vt 0.000000 0.000000
vt 0.000000 0.000000
vt 0.000000 0.000000
vt 0.000000 0.000000
vt 0.000000 0.000000
vt 0.000000 0.000000
vt 0.000000 0.000000
vt 0.000000 0.000000
vt 0.000000 0.000000
vt 0.000000 0.000000
vt 0.000000 0.000000
vt 0.000000 0.000000
vt 0.000000 0.000000
vt 0.000000 0.000000
vt 0.000000 0.000000
vt 0.000000 0.000000
vt 0.000000 0.000000
vt 0.000000 0.000000
vt 0.000000 0.000000
vt 0.000000 0.000000
vt 0.000000 0.000000
vt 0.000000 0.000000
vt 0.000000 0.000000
vt 0.000000 0.000000
vt 0.909364 0.900000
vt 0.909364 0.900000
vt 1.000000 0.900000
vt 1.000000 0.900000
vt 0.909364 0.900000
vt 0.909364 1.000000
vt 0.954682 1.000000
vt 1.000000 1.000000
vt 1.000000 0.950000
vt 1.000000 0.900000
vt 0.000000 0.000000
vt 0.000000 0.000000
vt 0.000000 0.000000
vt 0.000000 0.000000
vt 0.000000 0.000000
vt 0.000000 0.000000
vt 0.000000 0.000000
vt 0.000000 0.000000
vt 0.000000 0.000000
vt 0.909364 0.900000
vt 1.000000 0.900000
vt 0.909364 0.900000
vt 1.000000 0.900000
vt 1.000000 0.950000
vt 1.000000 1.000000
vt 0.954682 1.000000
vt 0.909364 1.000000
vt 0.000000 0.000000
vt 0.000000 0.000000
vt 0.000000 0.000000
vt 0.000000 0.000000
vt 1.000000 0.900000
vt 0.909364 0.900000
vt 0.000000 0.000000
vt 0.000000 0.000000
vt 0.000000 0.000000
vt 0.000000 0.000000
vt 0.909364 0.900000
vt 0.909364 1.000000
vt 0.954682 1.000000
vt 1.000000 1.000000
vt 1.000000 0.950000
vt 1.000000 0.900000
vt 0.000000 0.000000
vt 0.000000 0.000000
vt 0.000000 0.000000
vt 0.000000 0.000000
vt 0.000000 0.000000
vt 0.000000 0.000000
vt 0.000000 0.000000
vt 0.000000 0.000000
vt 0.909364 0.900000
vt 1.000000 0.900000
vt 1.000000 0.900000
vt 0.000000 0.000000
vt 0.000000 0.000000
vt 0.909364 0.900000
vt 0.000000 0.000000
vt 0.000000 0.000000
vt 0.000000 0.000000
vt 0.000000 0.000000
vt 0.000000 0.000000
vt 0.000000 0.000000
vt 0.000000 0.000000
vt 0.000000 0.000000
vt 0.000000 0.000000
vt 0.000000 0.000000
vt 0.000000 0.000000
vt 0.000000 0.000000
vt 0.000000 0.000000
vt 0.000000 0.000000
vt 0.000000 0.000000
vt 0.000000 0.000000
vt 0.000000 0.000000
vt 0.000000 0.000000
vt 0.000000 0.000000
vt 0.000000 0.000000
vt 0.000000 0.000000
vt 0.000000 0.000000
vt 0.000000 0.000000
vt 0.000000 0.000000
vt 0.000000 0.000000
vt 0.000000 0.000000
vt 0.000000 0.000000
vt 0.000000 0.000000
vt 0.000000 0.000000
vt 0.000000 0.000000
vt 0.000000 0.000000
vt 0.000000 0.000000
vt 0.000000 0.000000
vt 0.000000 0.000000
vt 0.050000 0.000000
vt 0.000000 0.154240
vt 0.000000 0.144600
vt 0.000000 0.134960
vt 0.000000 0.115680
vt 0.000000 0.077120
vt 0.100000 0.000000
vt 0.050000 0.000000
vt 0.100000 0.000000
vt 0.000000 0.144600
vt 0.000000 0.134960
vt 0.000000 0.000000
vt 0.000000 0.077120
vt 0.000000 0.115680
vt 0.000000 0.154240
vt 0.000000 0.154240
vt 0.100000 0.000000
vn 0.3994 0.0008 -0.9168
vn 0.3962 0.0005 -0.9182
vn 0.2432 0.0002 -0.9700
vn 0.2409 0.0000 -0.9705
vn 0.0058 1.0000 -0.0069
vn 0.0025 1.0000 -0.0026
vn 0.0038 1.0000 -0.0027
vn 0.0066 1.0000 -0.0020
vn 0.0018 0.9870 -0.1607
vn 0.0070 1.0000 -0.0000
vn 0.0011 1.0000 -0.0008
vn 0.0006 1.0000 -0.0004
vn 0.0000 0.5098 -0.8603
vn 0.0000 0.7523 -0.6588
vn 1.0000 0.0000 0.0000
vn 0.0000 -1.0000 -0.0000
vn 0.0000 0.0000 -1.0000
vn 0.0004 -0.0001 -1.0000
vn 0.0004 0.0004 -1.0000
vn 0.0002 0.0019 -1.0000
vn 0.0005 0.0009 -1.0000
vn 0.0011 0.1638 -0.9865
vn 0.0000 0.9483 -0.3174
vn 0.0710 0.9917 -0.1071
vn 0.2409 0.9705 0.0000
vn 0.3914 0.9202 0.0000
vn 0.6588 0.7523 0.0000
vn 0.8603 0.5098 0.0000
vn 0.9300 0.3676 0.0000
vn -0.9902 -0.1399 -0.0000
vn 0.8603 0.0000 -0.5098
vn 0.6588 0.0000 -0.7523
vn 0.9293 -0.0002 -0.3694
vn 0.9296 -0.0001 -0.3685
vn 0.8594 0.0001 -0.5114
vn 0.8578 0.0002 -0.5140
vn 0.6605 0.0005 -0.7508
vn 0.6632 0.0011 -0.7485
vn -0.9902 0.0000 0.1399
vn -0.9902 -0.0001 0.1396
vn 0.0013 0.0003 1.0000
vn 0.0007 0.0002 1.0000
vn -1.0000 0.0000 0.0000
vn -0.0000 0.9202 -0.3914
vn -0.0000 0.9705 -0.2409
vn 0.0000 0.3677 -0.9300
vn 0.0000 -0.1399 0.9902
vn 0.0000 0.0000 1.0000
vn 0.3935 -0.0010 -0.9193
vn 0.3935 -0.0004 -0.9193
vn -0.9903 0.0003 0.1393
vn -0.9903 0.0007 0.1393
vn 0.2454 -0.0019 -0.9694
vn 0.2454 -0.0007 -0.9694
vn 0.9300 0.0000 -0.3676
vn 0.0016 1.0000 -0.0092
vn -0.0012 1.0000 0.0042
vn 0.0002 1.0000 -0.0000
vn 0.3790 0.9228 -0.0701
vn 0.6575 0.7523 -0.0404
vn 0.6478 0.7267 -0.2284
vn 0.3702 0.9041 -0.2133
vn 0.1305 0.9898 -0.0571
vn 0.1775 0.9676 -0.1798
vn 0.0835 0.9908 -0.1062
vn 0.8571 0.5145 -0.0270
vn 0.8282 0.5043 -0.2444
vn 0.9279 0.3724 -0.0151
vn 0.8815 0.4076 -0.2384
vn 0.2619 0.8843 -0.3865
vn 0.4800 0.6522 -0.5867
vn 0.5667 0.4958 -0.6581
vn 0.7735 0.4211 -0.4737
vn 0.5750 0.4569 -0.6787
vn 0.3389 0.4558 -0.8230
vn 0.3144 0.5186 -0.7951
vn 0.3181 0.5048 -0.8025
vn 0.2671 0.6996 -0.6628
vn 0.1941 0.8993 -0.3919
vn 0.2006 0.8933 -0.4021
vn 0.0896 0.9854 -0.1447
vn 0.2600 0.7128 -0.6514
vn 0.0001 1.0000 0.0001
vn 0.0008 -0.0002 -1.0000
vn -0.2677 -0.0000 0.9635
vn -0.1744 -0.0000 0.9847
vn -0.4927 -0.0000 0.8702
vn -0.4079 -0.0000 0.9130
vn -0.3346 -0.0000 0.9424
vn -0.3091 -0.0000 0.9510
vn -0.0005 0.0001 1.0000
vn -0.0699 -0.0000 0.9976
vn -0.3451 -0.0000 0.9386
vn -0.1063 -0.6882 0.7177
vn -0.8577 -0.0000 0.5142
vn -0.7481 -0.0000 0.6636
vn -0.5161 -0.0000 0.8565
vn -0.5882 -0.0000 0.8087
vn -0.6307 -0.0000 0.7760
vn -0.9685 -0.0000 0.2489
vn -0.9653 -0.0000 0.2612
vn 0.0369 -0.3831 0.9230
vn -0.0012 0.0002 1.0000
vn -1.0000 -0.0002 0.0002
vn -1.0000 -0.0006 0.0006
vn -0.8876 -0.4569 -0.0578
vn -0.8387 -0.5416 -0.0565
vn -0.0014 -1.0000 0.0014
vn 0.0351 -0.9526 0.3021
vn -0.2708 -0.9610 -0.0559
vn -0.1525 -0.9874 -0.0434
vn -0.1400 -0.9883 -0.0597
vn 0.0746 -0.7643 0.6406
vn -0.5202 -0.8473 -0.1076
g BasicCorner_Plane_BlackPlastic
usemtl BlackPlastic
s 1
f 77/1/1 42/2/2 43/3/3 76/4/4
f 1/5/5 10/6/5 4/7/6 6/8/7 3/9/8 13/10/5 12/11/5 11/12/5 9/13/5
f 3/9/8 6/8/7 5/14/9 2/15/10
f 4/7/6 7/16/11 8/17/12 6/8/7
f 121/18/13 46/19/13 47/20/14 118/21/14
f 14/22/15 23/23/15 17/24/15 19/25/15 16/26/15 26/27/15 25/28/15 24/29/15 22/30/15
f 16/26/15 19/25/15 18/31/15 15/32/15
f 17/24/15 20/33/15 21/34/15 19/25/15
f 71/35/16 38/36/16 39/37/16 70/38/16
f 28/39/17 27/40/17 30/41/18 31/42/19
f 29/43/20 31/42/19 33/44/21 32/45/20
f 49/46/22 2/15/22 5/14/22
f 49/46/23 5/14/9 66/47/24
f 109/48/25 55/49/25 54/50/26 108/51/26
f 73/52/26 36/53/26 35/54/27 72/55/27
f 72/55/27 35/54/27 34/56/28 74/57/28
f 75/58/25 37/59/25 36/53/26 73/52/26
f 74/57/28 34/56/28 38/60/29 71/61/29
f 70/62/30 39/63/30 37/59/30 75/58/30
f 115/64/31 58/65/31 59/66/32 114/67/32
f 79/68/33 44/69/34 40/70/35 78/71/36
f 78/71/36 40/70/35 41/72/37 80/73/38
f 76/4/39 43/3/40 45/74/40 81/75/39
f 81/76/41 45/77/42 44/78/42 79/79/41
f 80/73/38 41/72/37 42/2/2 77/1/1
f 51/80/43 49/81/43 48/82/43 47/83/43 46/84/43 50/85/43
f 67/86/44 122/87/44 48/88/44 49/46/45 66/47/45 82/89/45
f 123/90/46 50/91/46 46/19/13 121/18/13
f 66/47/47 49/46/47 51/92/47 120/93/47 69/94/47
f 120/95/16 51/80/16 50/85/16 123/96/16
f 118/21/14 47/20/14 48/88/44 122/87/44
f 57/97/48 56/98/48 52/99/48 53/100/48 54/101/48 55/102/48
f 111/103/28 52/104/28 56/105/29 110/106/29
f 110/107/16 56/98/16 57/97/16 112/108/16
f 113/109/27 53/110/27 52/104/28 111/103/28
f 108/51/26 54/50/26 53/110/27 113/109/27
f 112/111/30 57/112/30 55/49/30 109/48/30
f 63/113/16 61/114/16 60/115/16 59/116/16 58/117/16 62/118/16
f 114/67/32 59/66/32 60/119/49 116/120/50
f 33/121/51 61/122/52 63/123/52 117/124/51
f 116/120/50 60/119/49 61/122/53 33/121/54
f 119/125/55 62/126/55 58/65/31 115/64/31
f 117/127/48 63/113/48 62/118/48 119/128/48
f 75/58/17 73/52/17 72/55/17 74/57/17 71/35/17 70/38/17
f 81/76/56 70/38/56 71/35/56 79/79/56
f 77/1/57 76/4/57 81/75/57 79/79/57 78/71/57 80/73/57
f 67/86/15 82/89/15 66/47/15 69/94/15 68/129/15 65/130/15 64/131/15
f 81/75/58 76/4/58 68/129/58 69/132/58
f 73/52/59 72/55/60 83/133/61 84/134/62
f 75/58/63 73/52/59 84/134/62 107/135/64 86/136/65
f 72/55/60 74/57/66 85/137/67 83/133/61
f 74/57/66 71/61/68 79/68/69 85/137/67
f 65/130/48 64/131/48 87/138/48 88/139/48
f 68/140/48 65/130/48 88/139/48 90/141/48
f 64/131/48 67/86/48 89/142/48 87/138/48
f 87/138/48 89/142/48 94/143/48 92/144/48
f 88/139/48 87/138/48 92/144/48 93/145/48
f 90/141/48 88/139/48 93/145/48 95/146/48
f 92/144/48 94/143/48 98/147/48 96/148/48
f 93/145/48 92/144/48 96/148/48 97/149/48
f 95/146/48 93/145/48 97/149/48 99/150/48
f 86/136/65 107/135/64 84/134/62 100/151/70
f 84/134/62 83/133/61 101/152/71 100/151/70
f 83/133/61 85/137/67 102/153/72 101/152/71
f 78/71/73 80/73/74 102/153/72 85/137/67 79/68/69
f 77/1/75 76/4/75 99/150/75 97/149/76 103/154/77 102/153/72 80/73/74
f 104/155/78 101/152/71 102/153/72 103/154/77
f 105/156/79 100/151/70 101/152/71 104/155/78
f 105/156/79 98/147/80 66/47/24 106/157/81
f 100/151/70 105/156/79 106/157/81 86/136/65
f 98/147/80 105/156/79 104/155/78 96/148/82
f 96/148/82 104/155/78 103/154/77 97/149/76
f 39/63/30 112/111/30 109/48/30 37/59/30
f 36/53/26 108/51/26 113/109/27 35/54/27
f 35/54/27 113/109/27 111/103/28 34/56/28
f 38/36/16 110/107/16 112/108/16 39/37/16
f 34/56/28 111/103/28 110/106/29 38/60/29
f 37/59/25 109/48/25 108/51/26 36/53/26
f 8/158/12 109/48/83 37/59/83 75/58/63 86/136/65 106/157/81 66/47/24 5/159/9 6/160/7
f 45/77/42 117/127/48 119/128/48 44/78/42
f 44/69/34 119/125/55 115/64/31 40/70/35
f 42/2/2 116/120/50 33/121/54 43/3/3
f 43/3/40 33/121/51 117/124/51 45/74/40
f 41/72/37 114/67/32 116/120/50 42/2/2
f 40/70/35 115/64/31 114/67/32 41/72/37
f 71/61/15 38/60/15 110/106/15 18/161/15 19/162/15
f 21/163/15 119/125/15 44/69/15 79/68/15 71/61/15 19/162/15
f 64/131/14 118/21/14 122/87/44 67/86/44
f 69/132/16 120/95/16 123/96/16 68/129/16
f 68/140/46 123/90/46 121/18/13 65/130/13
f 65/130/13 121/18/13 118/21/14 64/131/14
f 43/3/84 33/121/21 31/164/19 30/165/18 123/90/84 68/140/84 76/4/84
f 10/6/48 1/5/48 124/166/85 128/167/86
f 13/10/48 3/9/48 125/168/48 131/169/87
f 11/12/48 12/11/48 130/170/88 129/171/89
f 1/5/48 9/13/48 127/172/90 124/166/85
f 9/13/48 11/12/48 129/171/89 127/172/90
f 4/7/91 10/6/48 128/167/86 126/173/92
f 12/11/48 13/10/48 131/169/87 130/170/88
f 126/173/92 128/167/86 136/174/93 134/175/94
f 130/170/88 131/169/87 139/176/95 138/177/96
f 128/167/86 124/166/85 132/178/97 136/174/93
f 124/166/85 127/172/90 135/179/98 132/178/97
f 127/172/90 129/171/89 137/180/99 135/179/98
f 131/169/87 125/168/100 133/181/101 139/176/95
f 129/171/89 130/170/88 138/177/96 137/180/99
f 4/7/91 16/26/102 15/32/103 7/16/103
f 4/7/91 126/173/92 134/175/94 16/26/102
f 3/9/104 2/15/105 27/40/105 28/39/106
f 3/9/104 28/39/106 140/182/107 133/181/101 125/168/100
f 20/33/108 17/24/109 29/43/110 32/45/108
f 29/43/110 17/24/109 134/175/94 141/183/111
f 135/179/16 137/180/16 138/177/16 139/176/16 133/181/112 134/175/94 136/174/16 132/178/16
f 22/30/113 24/29/113 25/28/113 26/27/113 16/26/102 134/175/94 17/24/109 23/23/113 14/22/113
f 134/175/94 133/181/112 140/182/107 141/183/111
f 140/182/107 28/39/106 31/42/114 29/43/110 141/183/111
l 82 91
l 27 50
l 7 55
l 15 56
o ColoredSide1_Plane.001
v -0.077619 0.090090 0.077711
v 0.068660 0.090090 0.083874
v -0.082773 0.090090 -0.067833
v 0.068660 0.090090 -0.067833
v -0.064750 0.090090 0.084074
v -0.083641 0.090090 0.064273
v -0.072094 0.090090 0.082483
v -0.082448 0.090090 0.070992
vt 0.000000 0.000000
vt 0.250000 0.000000
vt 0.500000 0.000000
vt 1.000000 0.000000
vt 1.000000 1.000000
vt 0.000000 1.000000
vt 0.000000 0.500000
vt 0.000000 0.250000
vn 0.0000 1.0000 0.0000
g ColoredSide1_Plane.001_WhiteSide
usemtl WhiteSide
s off
f 142/184/115 148/185/115 146/186/115 143/187/115 145/188/115 144/189/115 147/190/115 149/191/115
o ColoredSide2_Plane.004
v 0.090895 -0.076472 0.076331
v 0.090895 0.069816 0.082494
v 0.090895 -0.081626 -0.069213
v 0.090895 0.069816 -0.069213
v 0.090895 -0.063602 0.082694
v 0.090895 -0.082494 0.062893
v 0.090895 -0.070946 0.081103
v 0.090895 -0.081301 0.069612
vt 0.000000 0.000000
vt 0.000000 0.250000
vt 0.000000 0.500000
vt 0.000000 1.000000
vt 1.000000 1.000000
vt 1.000000 0.000000
vt 0.500000 0.000000
vt 0.250000 0.000000
vn 1.0000 -0.0000 0.0000
g ColoredSide2_Plane.004_GreenSide
usemtl GreenSide
s off
f 150/192/116 157/193/116 155/194/116 152/195/116 153/196/116 151/197/116 154/198/116 156/199/116
o ColoredSide3_Plane.005
v -0.078207 -0.075389 -0.090900
v 0.068072 -0.081553 -0.090900
v -0.083361 0.070154 -0.090900
v 0.068072 0.070154 -0.090900
v -0.065338 -0.081753 -0.090900
v -0.084229 -0.061952 -0.090900
v -0.072681 -0.080162 -0.090900
v -0.083036 -0.068670 -0.090900
vt 0.000000 0.000000
vt 0.000000 0.250000
vt 0.000000 0.500000
vt 0.000000 1.000000
vt 1.000000 1.000000
vt 1.000000 0.000000
vt 0.500000 0.000000
vt 0.250000 0.000000
vn 0.0000 0.0000 -1.0000
g ColoredSide3_Plane.005_RedSide
usemtl RedSide
s off
f 158/200/117 165/201/117 163/202/117 160/203/117 161/204/117 159/205/117 162/206/117 164/207/117
