# Blender v2.91.2 OBJ File: 'rubikconnected.blend'
# www.blender.org
o CenterSide_Plane.010
v -0.077586 0.089604 0.069052
v 0.077631 0.089604 0.069052
v -0.077586 0.089604 -0.069416
v 0.077631 0.089604 -0.069416
v -0.053423 0.089604 -0.084303
v -0.062331 0.089604 -0.080475
v -0.069958 0.089604 -0.075903
v -0.081855 0.089604 -0.052108
v -0.053423 0.089604 0.083939
v -0.062331 0.089604 0.080111
v -0.069958 0.089604 0.075538
v -0.081855 0.089604 0.051743
v 0.053468 0.089604 -0.084303
v 0.062376 0.089604 -0.080475
v 0.070003 0.089604 -0.075903
v 0.081900 0.089604 -0.052108
v 0.053468 0.089604 0.083939
v 0.062376 0.089604 0.080111
v 0.070003 0.089604 0.075538
v 0.081900 0.089604 0.051743
vt 0.000000 0.875000
vt 0.000000 1.000000
vt 0.031250 1.000000
vt 0.062500 1.000000
vt 0.125000 1.000000
vt 0.125000 1.000000
vt 0.062500 1.000000
vt 0.031250 1.000000
vt 0.000000 1.000000
vt 0.000000 0.875000
vt 0.000000 0.875000
vt 0.000000 1.000000
vt 0.031250 1.000000
vt 0.062500 1.000000
vt 0.125000 1.000000
vt 0.125000 1.000000
vt 0.062500 1.000000
vt 0.031250 1.000000
vt 0.000000 1.000000
vt 0.000000 0.875000
vn 0.0000 1.0000 0.0000
s off
f 12/1/1 1/2/1 11/3/1 10/4/1 9/5/1 17/6/1 18/7/1 19/8/1 2/9/1 20/10/1 16/11/1 4/12/1 15/13/1 14/14/1 13/15/1 5/16/1 6/17/1 7/18/1 3/19/1 8/20/1
