# Blender v2.91.2 OBJ File: 'rubikconnected.blend'
# www.blender.org
o ColoredSide3_Plane.005
v -0.078207 -0.075389 -0.090900
v 0.068072 -0.081553 -0.090900
v -0.083361 0.070154 -0.090900
v 0.068072 0.070154 -0.090900
v -0.065338 -0.081753 -0.090900
v -0.084229 -0.061952 -0.090900
v -0.072681 -0.080162 -0.090900
v -0.083036 -0.068670 -0.090900
vt 0.000000 0.000000
vt 0.000000 0.250000
vt 0.000000 0.500000
vt 0.000000 1.000000
vt 1.000000 1.000000
vt 1.000000 0.000000
vt 0.500000 0.000000
vt 0.250000 0.000000
vn 0.0000 0.0000 -1.0000
s off
f 1/1/1 8/2/1 6/3/1 3/4/1 4/5/1 2/6/1 5/7/1 7/8/1
