# Blender v2.91.2 OBJ File: 'rubikconnected.blend'
# www.blender.org
o BasicCorner_Plane
v -0.072823 0.090000 0.086395
v -0.089995 0.090000 -0.069453
v -0.089907 0.090000 0.066486
v -0.062076 0.090000 0.089815
v -0.071996 0.089875 -0.069453
v -0.071996 0.089875 0.072000
v 0.069593 0.089731 0.089849
v 0.069482 0.089839 0.072014
v -0.076403 0.090000 0.084001
v -0.069358 0.090000 0.088266
v -0.079443 0.090000 0.081601
v -0.082749 0.090000 0.078835
v -0.085096 0.090000 0.075231
v 0.089995 -0.086395 0.072827
v 0.089995 0.072000 0.090000
v 0.089995 -0.066486 0.089912
v 0.089995 -0.089815 0.062079
v 0.089995 0.072000 0.072000
v 0.089995 -0.072000 0.072000
v 0.089995 -0.090000 -0.072000
v 0.089995 -0.072000 -0.072000
v 0.089995 -0.084001 0.076407
v 0.089995 -0.088266 0.069362
v 0.089995 -0.081601 0.079448
v 0.089995 -0.078835 0.082754
v 0.089995 -0.075231 0.085100
v -0.089995 0.072000 -0.090000
v -0.089907 -0.066486 -0.090000
v -0.062076 -0.089815 -0.090000
v -0.071996 0.072000 -0.090000
v -0.079950 -0.083036 -0.091348
v 0.069452 -0.090000 -0.090000
v 0.069486 -0.072271 -0.089934
v 0.087364 0.078656 0.000000
v 0.082628 0.084355 0.000000
v 0.076719 0.088068 0.000000
v 0.069471 0.089867 0.000000
v 0.089995 0.072000 0.000000
v 0.071996 0.072000 0.000000
v 0.087364 0.000000 -0.078656
v 0.082628 0.000000 -0.084355
v 0.076719 0.000000 -0.088068
v 0.069471 0.000000 -0.089867
v 0.089995 0.000000 -0.072000
v 0.071996 0.000000 -0.072000
v -0.089995 0.078656 -0.087369
v -0.089995 0.084355 -0.082632
v -0.089995 0.088068 -0.076723
v -0.089995 0.089867 -0.069475
v -0.089995 0.072000 -0.090000
v -0.089995 0.072000 -0.072000
v 0.087364 0.078656 0.090000
v 0.082628 0.084355 0.090000
v 0.076719 0.088068 0.090000
v 0.069471 0.089867 0.090000
v 0.089995 0.072000 0.090000
v 0.071996 0.072000 0.090000
v 0.087364 -0.090000 -0.078656
v 0.082628 -0.090000 -0.084355
v 0.076719 -0.090000 -0.088068
v 0.069471 -0.090000 -0.089867
v 0.089995 -0.090000 -0.072000
v 0.071996 -0.090000 -0.072000
v 0.067874 0.084355 -0.082632
v 0.067874 0.078656 -0.087369
v 0.067874 0.089867 -0.069475
v 0.067874 0.088068 -0.076723
v 0.067874 0.072000 -0.090000
v 0.067874 0.072000 -0.072000
v 0.071996 0.072000 -0.068743
v 0.089995 0.072000 -0.068743
v 0.082628 0.084355 -0.068743
v 0.076719 0.088068 -0.068743
v 0.087364 0.078656 -0.068743
v 0.069471 0.089867 -0.068743
v 0.069471 0.071999 -0.089867
v 0.076719 0.071999 -0.088068
v 0.087364 0.071999 -0.078656
v 0.090005 0.071940 -0.072048
v 0.082884 0.072101 -0.083922
v 0.071996 0.071999 -0.072000
v 0.067874 0.088967 -0.073099
v 0.082540 0.084207 -0.072240
v 0.076761 0.087907 -0.072067
v 0.087302 0.078570 -0.072195
v 0.068353 0.089913 -0.069107
v 0.067874 0.084355 -0.082632
v 0.067874 0.078656 -0.087369
v 0.067874 0.088068 -0.076723
v 0.067874 0.072000 -0.090000
v 0.067874 0.088967 -0.073099
v 0.067874 0.084355 -0.082632
v 0.067874 0.078656 -0.087369
v 0.067874 0.088068 -0.076723
v 0.067874 0.072000 -0.090000
v 0.067874 0.084355 -0.082632
v 0.067874 0.078656 -0.087369
v 0.067874 0.088068 -0.076723
v 0.067874 0.072000 -0.090000
v 0.074493 0.087411 -0.075012
v 0.079670 0.082487 -0.080232
v 0.081321 0.078092 -0.081880
v 0.074469 0.078385 -0.084841
v 0.073650 0.083482 -0.081432
v 0.071303 0.087684 -0.075868
v 0.068249 0.089884 -0.069268
v 0.072661 0.088881 -0.070610
v 0.076719 0.088068 0.071987
v 0.069471 0.089867 0.071987
v 0.089995 0.072000 0.071987
v 0.087364 0.078656 0.071987
v 0.071996 0.072000 0.071987
v 0.082628 0.084355 0.071987
v 0.082628 -0.072197 -0.084355
v 0.087364 -0.072197 -0.078656
v 0.076719 -0.072197 -0.088068
v 0.071996 -0.072197 -0.072000
v -0.072016 0.084355 -0.082632
v 0.089995 -0.072197 -0.072000
v -0.072016 0.072000 -0.072000
v -0.072016 0.078656 -0.087369
v -0.072016 0.088068 -0.076723
v -0.072016 0.072000 -0.090000
v -0.072823 0.090000 0.086395
v -0.089907 0.090000 0.066486
v -0.062076 0.090000 0.089815
v -0.076403 0.090000 0.084001
v -0.069358 0.090000 0.088266
v -0.079443 0.090000 0.081601
v -0.082749 0.090000 0.078835
v -0.085096 0.090000 0.075231
v -0.072823 -0.090000 0.086395
v -0.089907 -0.090000 0.066486
v -0.062076 -0.090000 0.089815
v -0.076403 -0.090000 0.084001
v -0.069358 -0.090000 0.088266
v -0.079443 -0.090000 0.081601
v -0.082749 -0.090000 0.078835
v -0.085096 -0.090000 0.075231
v -0.089907 -0.078243 -0.011757
v -0.062076 -0.089908 -0.000092
v -0.071293 -0.087130 -0.090714
v -0.086321 -0.075177 -0.090659
vt 0.000000 0.000000
vt 0.000000 0.000000
vt 0.000000 0.000000
vt 0.000000 0.000000
vt 0.000000 0.000000
vt 0.050000 0.000000
vt 0.100000 0.000000
vt 0.100000 0.154240
vt 0.000000 0.154240
vt 0.000000 0.144600
vt 0.000000 0.134960
vt 0.000000 0.115680
vt 0.000000 0.077120
vt 0.100000 0.900000
vt 0.000000 0.900000
vt 0.909364 0.000000
vt 0.909364 0.154240
vt 0.000000 0.000000
vt 0.000000 0.000000
vt 0.000000 0.000000
vt 0.000000 0.000000
vt 0.000000 0.000000
vt 0.050000 0.000000
vt 0.100000 0.000000
vt 0.100000 0.154240
vt 0.000000 0.154240
vt 0.000000 0.144600
vt 0.000000 0.134960
vt 0.000000 0.115680
vt 0.000000 0.077120
vt 0.100000 0.900000
vt 0.000000 0.900000
vt 0.909364 0.000000
vt 0.909364 0.154240
vt 1.000000 0.900000
vt 1.000000 0.900000
vt 0.909364 0.900000
vt 0.909364 0.900000
vt 0.000000 0.154240
vt 0.000000 0.900000
vt 0.100000 0.900000
vt 0.100000 0.154240
vt 0.050000 0.154240
vt 0.100000 0.000000
vt 0.100000 0.077120
vt 0.909364 0.154240
vt 0.909364 0.000000
vt 0.000000 0.000000
vt 0.000000 0.000000
vt 0.000000 0.000000
vt 0.000000 0.000000
vt 0.000000 0.000000
vt 0.000000 0.000000
vt 0.000000 0.000000
vt 0.000000 0.000000
vt 0.000000 0.000000
vt 0.000000 0.000000
vt 0.000000 0.000000
vt 0.000000 0.000000
vt 0.000000 0.000000
vt 0.000000 0.000000
vt 0.000000 0.000000
vt 0.000000 0.000000
vt 0.000000 0.000000
vt 0.000000 0.000000
vt 0.000000 0.000000
vt 0.000000 0.000000
vt 0.000000 0.000000
vt 0.000000 0.000000
vt 0.000000 0.000000
vt 0.000000 0.000000
vt 0.000000 0.000000
vt 0.000000 0.000000
vt 0.000000 0.000000
vt 0.000000 0.000000
vt 0.000000 0.000000
vt 0.000000 0.000000
vt 0.909364 0.900000
vt 0.909364 0.900000
vt 1.000000 0.900000
vt 1.000000 0.900000
vt 0.909364 0.900000
vt 0.909364 1.000000
vt 0.954682 1.000000
vt 1.000000 1.000000
vt 1.000000 0.950000
vt 1.000000 0.900000
vt 0.000000 0.000000
vt 0.000000 0.000000
vt 0.000000 0.000000
vt 0.000000 0.000000
vt 0.000000 0.000000
vt 0.000000 0.000000
vt 0.000000 0.000000
vt 0.000000 0.000000
vt 0.000000 0.000000
vt 0.909364 0.900000
vt 1.000000 0.900000
vt 0.909364 0.900000
vt 1.000000 0.900000
vt 1.000000 0.950000
vt 1.000000 1.000000
vt 0.954682 1.000000
vt 0.909364 1.000000
vt 0.000000 0.000000
vt 0.000000 0.000000
vt 0.000000 0.000000
vt 0.000000 0.000000
vt 1.000000 0.900000
vt 0.909364 0.900000
vt 0.000000 0.000000
vt 0.000000 0.000000
vt 0.000000 0.000000
vt 0.000000 0.000000
vt 0.909364 0.900000
vt 0.909364 1.000000
vt 0.954682 1.000000
vt 1.000000 1.000000
vt 1.000000 0.950000
vt 1.000000 0.900000
vt 0.000000 0.000000
vt 0.000000 0.000000
vt 0.000000 0.000000
vt 0.000000 0.000000
vt 0.000000 0.000000
vt 0.000000 0.000000
vt 0.000000 0.000000
vt 0.000000 0.000000
vt 0.909364 0.900000
vt 1.000000 0.900000
vt 1.000000 0.900000
vt 0.000000 0.000000
vt 0.000000 0.000000
vt 0.909364 0.900000
vt 0.000000 0.000000
vt 0.000000 0.000000
vt 0.000000 0.000000
vt 0.000000 0.000000
vt 0.000000 0.000000
vt 0.000000 0.000000
vt 0.000000 0.000000
vt 0.000000 0.000000
vt 0.000000 0.000000
vt 0.000000 0.000000
vt 0.000000 0.000000
vt 0.000000 0.000000
vt 0.000000 0.000000
vt 0.000000 0.000000
vt 0.000000 0.000000
vt 0.000000 0.000000
vt 0.000000 0.000000
vt 0.000000 0.000000
vt 0.000000 0.000000
vt 0.000000 0.000000
vt 0.000000 0.000000
vt 0.000000 0.000000
vt 0.000000 0.000000
vt 0.000000 0.000000
vt 0.000000 0.000000
vt 0.000000 0.000000
vt 0.000000 0.000000
vt 0.000000 0.000000
vt 0.000000 0.000000
vt 0.000000 0.000000
vt 0.000000 0.000000
vt 0.000000 0.000000
vt 0.000000 0.000000
vt 0.000000 0.000000
vt 0.050000 0.000000
vt 0.000000 0.154240
vt 0.000000 0.144600
vt 0.000000 0.134960
vt 0.000000 0.115680
vt 0.000000 0.077120
vt 0.100000 0.000000
vt 0.050000 0.000000
vt 0.100000 0.000000
vt 0.000000 0.144600
vt 0.000000 0.134960
vt 0.000000 0.000000
vt 0.000000 0.077120
vt 0.000000 0.115680
vt 0.000000 0.154240
vt 0.000000 0.154240
vt 0.100000 0.000000
vn 0.3994 0.0008 -0.9168
vn 0.3962 0.0005 -0.9182
vn 0.2432 0.0002 -0.9700
vn 0.2409 0.0000 -0.9705
vn 0.0058 1.0000 -0.0069
vn 0.0025 1.0000 -0.0026
vn 0.0038 1.0000 -0.0027
vn 0.0066 1.0000 -0.0020
vn 0.0018 0.9870 -0.1607
vn 0.0070 1.0000 -0.0000
vn 0.0011 1.0000 -0.0008
vn 0.0006 1.0000 -0.0004
vn 0.0000 0.5098 -0.8603
vn 0.0000 0.7523 -0.6588
vn 1.0000 0.0000 0.0000
vn 0.0000 -1.0000 -0.0000
vn -0.0447 0.0062 -0.9990
vn -0.0197 0.0052 -0.9998
vn -0.0080 -0.0051 -1.0000
vn 0.0071 -0.0470 -0.9989
vn 0.0062 -0.0202 -0.9998
vn 0.0011 0.1638 -0.9865
vn 0.0000 0.9483 -0.3174
vn 0.0710 0.9917 -0.1071
vn 0.2409 0.9705 0.0000
vn 0.3914 0.9202 0.0000
vn 0.6588 0.7523 0.0000
vn 0.8603 0.5098 0.0000
vn 0.9300 0.3676 0.0000
vn -0.9902 -0.1399 -0.0000
vn 0.8603 0.0000 -0.5098
vn 0.6588 0.0000 -0.7523
vn 0.9293 -0.0002 -0.3694
vn 0.9296 -0.0001 -0.3685
vn 0.8594 0.0001 -0.5114
vn 0.8578 0.0002 -0.5140
vn 0.6605 0.0005 -0.7508
vn 0.6632 0.0011 -0.7485
vn -0.9902 0.0000 0.1399
vn -0.9902 -0.0001 0.1396
vn 0.0013 0.0003 1.0000
vn 0.0007 0.0002 1.0000
vn -1.0000 0.0000 0.0000
vn -0.0000 0.9202 -0.3914
vn -0.0000 0.9705 -0.2409
vn 0.0000 0.3677 -0.9300
vn 0.0000 -0.1399 0.9902
vn 0.0000 0.0000 1.0000
vn 0.3935 -0.0010 -0.9193
vn 0.3935 -0.0004 -0.9193
vn -0.9903 0.0003 0.1393
vn -0.9903 0.0007 0.1393
vn 0.2454 -0.0019 -0.9694
vn 0.2454 -0.0007 -0.9694
vn 0.9300 0.0000 -0.3676
vn 0.0000 0.0000 -1.0000
vn 0.0016 1.0000 -0.0092
vn -0.0012 1.0000 0.0042
vn 0.0002 1.0000 -0.0000
vn 0.3790 0.9228 -0.0701
vn 0.6575 0.7523 -0.0404
vn 0.6478 0.7267 -0.2284
vn 0.3702 0.9041 -0.2133
vn 0.1305 0.9898 -0.0571
vn 0.1775 0.9676 -0.1798
vn 0.0835 0.9908 -0.1062
vn 0.8571 0.5145 -0.0270
vn 0.8282 0.5043 -0.2444
vn 0.9279 0.3724 -0.0151
vn 0.8815 0.4076 -0.2384
vn 0.2619 0.8843 -0.3865
vn 0.4800 0.6522 -0.5867
vn 0.5667 0.4958 -0.6581
vn 0.7735 0.4211 -0.4737
vn 0.5750 0.4569 -0.6787
vn 0.3389 0.4558 -0.8230
vn 0.3144 0.5186 -0.7951
vn 0.3181 0.5048 -0.8025
vn 0.2671 0.6996 -0.6628
vn 0.1941 0.8993 -0.3919
vn 0.2006 0.8933 -0.4021
vn 0.0896 0.9854 -0.1447
vn 0.2600 0.7128 -0.6514
vn 0.0001 1.0000 0.0001
vn 0.0053 0.0042 -1.0000
vn -0.2677 -0.0000 0.9635
vn -0.1744 -0.0000 0.9847
vn -0.4927 -0.0000 0.8702
vn -0.4079 -0.0000 0.9130
vn -0.3346 -0.0000 0.9424
vn -0.3091 -0.0000 0.9510
vn -0.0005 0.0001 1.0000
vn -0.0699 -0.0000 0.9976
vn -0.3451 -0.0000 0.9386
vn -0.1063 -0.6882 0.7177
vn -0.8577 -0.0000 0.5142
vn -0.7481 -0.0000 0.6636
vn -0.5161 -0.0000 0.8565
vn -0.5882 -0.0000 0.8087
vn -0.6307 -0.0000 0.7760
vn -0.9685 -0.0000 0.2489
vn -0.9653 -0.0000 0.2612
vn 0.0369 -0.3831 0.9230
vn -0.0012 0.0002 1.0000
vn -1.0000 -0.0002 0.0002
vn -1.0000 -0.0006 0.0006
vn -0.8906 -0.4547 -0.0056
vn -0.8396 -0.5429 -0.0194
vn -0.0014 -1.0000 0.0014
vn 0.0351 -0.9526 0.3021
vn -0.2788 -0.9603 -0.0056
vn -0.1532 -0.9879 -0.0245
vn -0.1400 -0.9883 -0.0597
vn 0.0746 -0.7643 0.6406
vn -0.5241 -0.8516 -0.0108
s 1
f 77/1/1 42/2/2 43/3/3 76/4/4
f 1/5/5 10/6/5 4/7/6 6/8/7 3/9/8 13/10/5 12/11/5 11/12/5 9/13/5
f 3/9/8 6/8/7 5/14/9 2/15/10
f 4/7/6 7/16/11 8/17/12 6/8/7
f 121/18/13 46/19/13 47/20/14 118/21/14
f 14/22/15 23/23/15 17/24/15 19/25/15 16/26/15 26/27/15 25/28/15 24/29/15 22/30/15
f 16/26/15 19/25/15 18/31/15 15/32/15
f 17/24/15 20/33/15 21/34/15 19/25/15
f 71/35/16 38/36/16 39/37/16 70/38/16
f 28/39/17 27/40/17 30/41/18 31/42/19 143/43/17
f 29/44/20 142/45/20 31/42/19 33/46/21 32/47/20
f 49/48/22 2/15/22 5/14/22
f 49/48/23 5/14/9 66/49/24
f 109/50/25 55/51/25 54/52/26 108/53/26
f 73/54/26 36/55/26 35/56/27 72/57/27
f 72/57/27 35/56/27 34/58/28 74/59/28
f 75/60/25 37/61/25 36/55/26 73/54/26
f 74/59/28 34/58/28 38/62/29 71/63/29
f 70/64/30 39/65/30 37/61/30 75/60/30
f 115/66/31 58/67/31 59/68/32 114/69/32
f 79/70/33 44/71/34 40/72/35 78/73/36
f 78/73/36 40/72/35 41/74/37 80/75/38
f 76/4/39 43/3/40 45/76/40 81/77/39
f 81/78/41 45/79/42 44/80/42 79/81/41
f 80/75/38 41/74/37 42/2/2 77/1/1
f 51/82/43 49/83/43 48/84/43 47/85/43 46/86/43 50/87/43
f 67/88/44 122/89/44 48/90/44 49/48/45 66/49/45 82/91/45
f 123/92/46 50/93/46 46/19/13 121/18/13
f 66/49/47 49/48/47 51/94/47 120/95/47 69/96/47
f 120/97/16 51/82/16 50/87/16 123/98/16
f 118/21/14 47/20/14 48/90/44 122/89/44
f 57/99/48 56/100/48 52/101/48 53/102/48 54/103/48 55/104/48
f 111/105/28 52/106/28 56/107/29 110/108/29
f 110/109/16 56/100/16 57/99/16 112/110/16
f 113/111/27 53/112/27 52/106/28 111/105/28
f 108/53/26 54/52/26 53/112/27 113/111/27
f 112/113/30 57/114/30 55/51/30 109/50/30
f 63/115/16 61/116/16 60/117/16 59/118/16 58/119/16 62/120/16
f 114/69/32 59/68/32 60/121/49 116/122/50
f 33/123/51 61/124/52 63/125/52 117/126/51
f 116/122/50 60/121/49 61/124/53 33/123/54
f 119/127/55 62/128/55 58/67/31 115/66/31
f 117/129/48 63/115/48 62/120/48 119/130/48
f 75/60/56 73/54/56 72/57/56 74/59/56 71/35/56 70/38/56
f 81/78/57 70/38/57 71/35/57 79/81/57
f 77/1/58 76/4/58 81/77/58 79/81/58 78/73/58 80/75/58
f 67/88/15 82/91/15 66/49/15 69/96/15 68/131/15 65/132/15 64/133/15
f 81/77/59 76/4/59 68/131/59 69/134/59
f 73/54/60 72/57/61 83/135/62 84/136/63
f 75/60/64 73/54/60 84/136/63 107/137/65 86/138/66
f 72/57/61 74/59/67 85/139/68 83/135/62
f 74/59/67 71/63/69 79/70/70 85/139/68
f 65/132/48 64/133/48 87/140/48 88/141/48
f 68/142/48 65/132/48 88/141/48 90/143/48
f 64/133/48 67/88/48 89/144/48 87/140/48
f 87/140/48 89/144/48 94/145/48 92/146/48
f 88/141/48 87/140/48 92/146/48 93/147/48
f 90/143/48 88/141/48 93/147/48 95/148/48
f 92/146/48 94/145/48 98/149/48 96/150/48
f 93/147/48 92/146/48 96/150/48 97/151/48
f 95/148/48 93/147/48 97/151/48 99/152/48
f 86/138/66 107/137/65 84/136/63 100/153/71
f 84/136/63 83/135/62 101/154/72 100/153/71
f 83/135/62 85/139/68 102/155/73 101/154/72
f 78/73/74 80/75/75 102/155/73 85/139/68 79/70/70
f 77/1/76 76/4/76 99/152/76 97/151/77 103/156/78 102/155/73 80/75/75
f 104/157/79 101/154/72 102/155/73 103/156/78
f 105/158/80 100/153/71 101/154/72 104/157/79
f 105/158/80 98/149/81 66/49/24 106/159/82
f 100/153/71 105/158/80 106/159/82 86/138/66
f 98/149/81 105/158/80 104/157/79 96/150/83
f 96/150/83 104/157/79 103/156/78 97/151/77
f 39/65/30 112/113/30 109/50/30 37/61/30
f 36/55/26 108/53/26 113/111/27 35/56/27
f 35/56/27 113/111/27 111/105/28 34/58/28
f 38/36/16 110/109/16 112/110/16 39/37/16
f 34/58/28 111/105/28 110/108/29 38/62/29
f 37/61/25 109/50/25 108/53/26 36/55/26
f 8/160/12 109/50/84 37/61/84 75/60/64 86/138/66 106/159/82 66/49/24 5/161/9 6/162/7
f 45/79/42 117/129/48 119/130/48 44/80/42
f 44/71/34 119/127/55 115/66/31 40/72/35
f 42/2/2 116/122/50 33/123/54 43/3/3
f 43/3/40 33/123/51 117/126/51 45/76/40
f 41/74/37 114/69/32 116/122/50 42/2/2
f 40/72/35 115/66/31 114/69/32 41/74/37
f 71/63/15 38/62/15 110/108/15 18/163/15 19/164/15
f 21/165/15 119/127/15 44/71/15 79/70/15 71/63/15 19/164/15
f 64/133/14 118/21/14 122/89/44 67/88/44
f 69/134/16 120/97/16 123/98/16 68/131/16
f 68/142/46 123/92/46 121/18/13 65/132/13
f 65/132/13 121/18/13 118/21/14 64/133/14
f 43/3/85 33/123/21 31/166/19 30/167/18 123/92/85 68/142/85 76/4/85
f 10/6/48 1/5/48 124/168/86 128/169/87
f 13/10/48 3/9/48 125/170/48 131/171/88
f 11/12/48 12/11/48 130/172/89 129/173/90
f 1/5/48 9/13/48 127/174/91 124/168/86
f 9/13/48 11/12/48 129/173/90 127/174/91
f 4/7/92 10/6/48 128/169/87 126/175/93
f 12/11/48 13/10/48 131/171/88 130/172/89
f 126/175/93 128/169/87 136/176/94 134/177/95
f 130/172/89 131/171/88 139/178/96 138/179/97
f 128/169/87 124/168/86 132/180/98 136/176/94
f 124/168/86 127/174/91 135/181/99 132/180/98
f 127/174/91 129/173/90 137/182/100 135/181/99
f 131/171/88 125/170/101 133/183/102 139/178/96
f 129/173/90 130/172/89 138/179/97 137/182/100
f 4/7/92 16/26/103 15/32/104 7/16/104
f 4/7/92 126/175/93 134/177/95 16/26/103
f 3/9/105 2/15/106 27/40/106 28/39/107
f 3/9/105 28/39/107 140/184/108 133/183/102 125/170/101
f 20/33/109 17/24/110 29/44/111 32/47/109
f 29/44/111 17/24/110 134/177/95 141/185/112
f 135/181/16 137/182/16 138/179/16 139/178/16 133/183/113 134/177/95 136/176/16 132/180/16
f 22/30/114 24/29/114 25/28/114 26/27/114 16/26/103 134/177/95 17/24/110 23/23/114 14/22/114
f 134/177/95 133/183/113 140/184/108 141/185/112
f 140/184/108 28/39/107 143/43/115 31/42/115 142/45/115 29/44/111 141/185/112
l 82 91
l 27 50
l 7 55
l 15 56
